<?xml version="1.0" encoding="UTF-8"?>
<svg version="1.1" viewBox="0 0 2048 1648" width="804" height="647" xmlns="http://www.w3.org/2000/svg">
<path transform="translate(1308,194)" d="m0 0h20l14 3 11 6 5 5 2 3v15l-4 19-15 44-9 25-17 49-13 36-22 62-17 48-16 45-19 54-13 36-18 51-10 28-6 20-1 5v8l3 6 1 3 4 2 10 3h370l27-1 7-3 6-7 7-14 12-36 20-57 19-54 12-34 19-54 15-43 15-42 19-54 9-26 14-40 13-34 11-24 6-9 9-8 14-7 16-4 7-1h28l17 4 9 6 4 5 1 2v12l-5 19-9 26-15 40-13 36-17 46-19 52-17 46-12 33-15 41-14 39-16 43-13 37-17 46-14 39-15 41-10 27-7 20-11 30-38 106-11 30-12 33-9 26-17 47-16 45-28 78-15 42-21 58-9 25-9 19-9 13-8 8-11 8-10 5-14 4-6 1h-22l-13-4-6-4-5-4-3-5v-8l5-21 13-41 11-31 15-40 12-35 18-50 17-48 13-36 18-51 25-70 10-27 10-29 16-44 4-12v-14l-3-7-6-4-9-2-11-1h-364l-15 1-11 3-9 6-5 10-14 36-10 28-11 33-13 36-10 28-8 24-11 30-10 29-12 34-34 96-17 49-13 34-10 23-8 16-11 21-8 12-9 11-8 8-13 9-14 6-12 3h-19l-15-4-12-7-10-9-8-11-7-15-9-27-5-22-5-36-3-37-5-92-8-126-7-87-6-60-8-71-13-97-17-107-10-53-14-61-7-24-8-18-9-14-8-7-7-3-11-1-8 2-9 5-10 9-9 10-11 18-8 15-20 40-12 27-13 30-9 22-16 38-16 40-14 34-36 90-15 40-13 33-19 50-10 26-15 40-17 45-15 40-17 45-9 24-26 69-13 36-15 40-18 50-12 28-10 16-12 13-8 6-14 8-13 4-10 2h-9l-16-2-13-5-6-4-4-6-1-3v-12l4-15 15-44 11-29 33-88 16-43 15-40 13-35 17-45 15-40 14-37 13-35 15-39 11-29 11-28 17-44 13-34 13-33 17-45 14-35 11-29 12-30 17-41 15-35 13-29 23-47 10-19 13-24 10-17 12-19 12-17 9-12 9-11 12-13 13-13 14-11 11-8 16-9 16-6 14-3h23l15 3 16 8 11 7 12 11 7 7 11 15 9 15 8 16 8 20 12 36 11 42 10 45 12 66 10 66 8 62 9 80 7 75 8 103 4 68 4 79 2 47 2 21 4 11 5 5 4 2h8l6-3 3-1 2-4 7-17 30-83 15-42 11-30 7-21 9-25 10-28 21-60 12-34 14-40 17-48 16-46 15-43 19-54 15-43 12-34 17-49 9-25 12-35 12-34 10-28 10-29 17-50 12-34 11-27 13-23 8-8 11-7 16-6z" fill="#00ffff"/>
<path transform="translate(1309,166)" d="m0 0h19l14 2 16 5 10 5 10 9 6 10 3 9 1 13-3 19-6 21-8 23-16 44-15 43-13 36-15 43-16 44-14 40-10 27-16 46-14 39-14 42-13 37-6 17-1 2h296l54-1 30-1 3-10 18-48 19-53 17-47 12-35 9-24 20-58 10-28 15-43 16-45 12-35 17-48 9-22 7-14 7-9 13-13 16-9 16-6 15-3 10-1h23l17 3 15 5 9 6 6 5 7 10 4 10 1 5v12l-5 21-14 41-15 40-13 36-13 35-17 47-14 38-19 52-11 30-17 47-13 35-17 47-17 46-8 23-17 46-10 29-16 44-15 42-13 36-14 39-16 44-15 42-16 44-12 34-11 30-20 56-14 38-13 37-9 25-12 36-9 21-7 12-11 14-8 8-18 12-14 6-12 3-17 2h-16l-17-3-11-4-13-7-7-6-6-10-3-8-1-13 3-16 7-22 17-49 17-47 17-48 13-36 17-48 9-25 19-54 8-21 10-29 18-49 13-37 14-40 4-15h-341l-34 1-5 5-7 15-8 20-12 36-17 48-13 37-16 45-15 43-10 27-10 29-16 46-9 25-14 40-18 48-11 27-8 16-9 16-11 15-8 10-10 10-14 10-15 8-17 6-10 2h-23l-18-4-17-8-8-6-10-9-10-13-9-16-8-21-6-23-5-28-4-43-6-96-7-111-5-69-8-88-11-97-12-89-10-66-8-48-11-56-10-42-8-27-7-17-7-9-5-1-8 6-12 16-10 16-7 14-10 19-10 21-19 45-15 36-19 47-14 34-11 27-15 39-11 28-15 39-21 53-11 29-18 46-16 43-16 42-13 35-22 58-11 30-13 34-20 55-11 29-13 37-16 42-8 17-10 15-11 12-14 11-19 10-19 6-11 2h-21l-15-3-13-4-11-6-10-9-6-9-3-8-1-6v-8l3-17 12-36 17-46 11-30 15-39 16-43 20-53 15-40 11-29 14-38 18-47 12-32 20-52 36-94 15-39 18-47 11-29 20-51 16-40 11-27 13-31 11-26 17-37 11-25 19-38 12-21 16-27 10-15 14-20 10-13 14-17 7-8 9-10 10-9 17-13 14-9 21-10 20-6 13-2h21l20 4 16 6 15 9 14 10 12 12 11 14 10 15 12 23 10 25 9 27 12 42 11 47 7 36 9 53 10 72 7 58 9 78 10 105 5 67 5 69 5 102 1 4 8-21 7-20 11-31 19-53 16-45 19-53 30-86 10-28 17-49 14-39 13-38 16-45 12-35 13-36 19-55 13-36 14-41 17-48 14-41 9-25 14-41 14-39 12-25 7-11 8-10 11-10 13-8 14-6 16-4zm-1 28-14 3-13 5-11 7-8 8-14 25-13 33-16 47-11 31-10 29-15 44-15 42-11 32-13 36-11 33-14 39-17 49-17 48-16 46-17 48-30 86-20 57-13 37-7 19-9 25-10 29-13 36-16 45-11 30-10 27-5 10-1 3-4 2-5 2h-8l-8-5-4-9-2-11-2-37-4-83-4-72-6-82-7-81-8-77-9-74-9-63-8-48-10-53-11-47-9-33-12-36-9-21-8-16-12-18-9-11-12-12-13-9-16-8-11-3-6-1h-23l-17 4-17 7-15 9-13 10-13 11-17 17-9 11-8 10-13 18-11 17-9 15-14 25-12 23-14 27-14 29-16 36-18 43-20 49-7 19-11 28-16 41-9 24-20 51-17 45-12 30-19 50-18 47-17 46-13 34-13 35-17 45-16 43-15 40-22 59-33 88-13 40-1 5v12l4 8 5 4 12 5 9 2 10 1h9l18-4 16-8 8-6 9-8 8-10 9-15 12-29 18-50 15-40 19-52 16-42 11-30 15-39 19-51 16-42 16-43 35-91 17-44 11-29 11-27 14-35 15-37 14-34 15-37 12-28 10-24 16-36 12-25 9-17 8-16 8-14 10-13 10-10 10-6 4-2 12-1 10 3 8 6 7 9 8 15 7 19 8 32 12 54 9 50 16 100 14 104 11 102 6 71 5 68 7 114 5 89 4 38 5 30 6 22 8 22 8 15 11 12 10 7 12 5 9 2h19l15-4 16-8 11-9 8-8 11-15 9-16 11-21 12-28 11-29 15-43 16-45 17-48 14-40 20-57 11-30 7-21 11-30 10-29 15-44 12-31 7-17 4-5 9-5 9-2 15-1h364l16 2 8 3 3 3 2 6v14l-7 21-15 41-17 48-9 24-11 31-9 26-17 48-18 50-17 48-18 50-10 29-13 34-10 29-12 39-4 17v8l5 7 9 6 13 4h22l14-3 13-5 11-8 10-9 8-11 9-17 9-25 20-55 16-45 13-36 19-53 15-42 17-47 17-48 16-44 38-106 15-40 8-23 20-55 13-36 18-49 16-45 16-43 15-42 17-46 16-44 14-38 19-52 16-43 9-25 16-43 7-22 2-9v-12l-4-6-8-6-13-4-6-1h-28l-20 4-14 6-9 7-7 8-11 23-13 34-12 34-16 46-34 96-16 46-15 42-15 43-16 45-15 43-12 35-7 20-7 12-7 6-4 1-27 1h-370l-10-3-4-2-2-4-2-5v-8l5-19 11-32 13-36 14-40 13-36 19-54 15-42 13-37 15-42 11-31 10-28 15-43 16-45 7-22 3-15v-15l-4-6-14-8-14-3z" fill="#00ffff"/>
</svg>
